<svg width="16" height="16" viewBox="0 0 16 16" fill="none" xmlns="http://www.w3.org/2000/svg">
<path fill-rule="evenodd" clip-rule="evenodd" d="M11 3.5C11 3.22386 10.7761 3 10.5 3H1.5C1.22386 3 1 3.22386 1 3.5V15.5C1 15.7761 1.22386 16 1.5 16H10.5C10.7761 16 11 15.7761 11 15.5V3.5ZM9 5.5C9 5.22386 8.77614 5 8.5 5H3.5C3.22386 5 3 5.22386 3 5.5V13.5C3 13.7761 3.22386 14 3.5 14H8.5C8.77614 14 9 13.7761 9 13.5V5.5Z" fill="#0085FF"/>
<path d="M5 0.5C5 0.223858 5.22386 0 5.5 0H14.5C14.7761 0 15 0.223858 15 0.5V12.5C15 12.7761 14.7761 13 14.5 13H12.5C12.2239 13 12 12.7761 12 12.5V11.5C12 11.2239 12.2239 11 12.5 11C12.7761 11 13 10.7761 13 10.5V2.5C13 2.22386 12.7761 2 12.5 2H5.5C5.22386 2 5 1.77614 5 1.5V0.5Z" fill="#0085FF"/>
</svg>
